<svg xmlns="http://www.w3.org/2000/svg" width="310.595" height="371.849" viewBox="0 0 310.595 371.849"><defs><style>.a{fill:#f37b20;}.b{fill:#fadf3e;}.c{fill:#f9bc1c;}.d{fill:#95c83d;}.e{fill:#1a924b;}</style></defs><g transform="translate(-5400 -4143.235)"><g transform="translate(5505.037 4143.235)"><path class="a" d="M5710.48,4143.235a2.018,2.018,0,0,1,2.017,2.017l-.005,21.811a2.014,2.014,0,1,1-4.028,0v-21.808A2.012,2.012,0,0,1,5710.48,4143.235Z" transform="translate(-5666.104 -4143.235)"/><path class="a" d="M5621.83,4161.776a2.013,2.013,0,0,1,1.608.795l11.172,14.574a2.017,2.017,0,1,1-3.2,2.452l-11.172-14.577a2.013,2.013,0,0,1,1.6-3.244Z" transform="translate(-5619.815 -4152.917)"/><path class="a" d="M5784.972,4161.77a2.019,2.019,0,0,1,1.6,3.245l-11.177,14.582a2.017,2.017,0,1,1-3.2-2.453l11.172-14.576A2.018,2.018,0,0,1,5784.972,4161.77Z" transform="translate(-5699.162 -4152.913)"/></g><g transform="translate(5683.121 4244.158)"><path class="a" d="M6021.758,4445.108a2.019,2.019,0,0,1-2.014,2.017l-21.814-.006a2.015,2.015,0,1,1,0-4.031h21.808A2.014,2.014,0,0,1,6021.758,4445.108Z" transform="translate(-5994.284 -4400.729)"/><path class="a" d="M6011.118,4356.458a2.012,2.012,0,0,1-.792,1.6l-14.573,11.172a2.018,2.018,0,1,1-2.455-3.2l14.576-11.172a2.012,2.012,0,0,1,3.244,1.6Z" transform="translate(-5992.503 -4354.442)"/><path class="a" d="M6011.122,4519.6a2.017,2.017,0,0,1-3.245,1.6l-14.582-11.181a2.016,2.016,0,0,1,2.455-3.2l14.576,11.172A2.025,2.025,0,0,1,6011.122,4519.6Z" transform="translate(-5992.504 -4433.788)"/></g><g transform="translate(5400 4244.157)"><path class="a" d="M5400,4443.161a2.015,2.015,0,0,1,2.014-2.016l21.813,0a2.015,2.015,0,1,1,0,4.031H5402.02A2.013,2.013,0,0,1,5400,4443.161Z" transform="translate(-5400 -4399.714)"/><path class="a" d="M5418.535,4519.593a2.028,2.028,0,0,1,.794-1.605l14.574-11.172a2.017,2.017,0,1,1,2.455,3.2l-14.576,11.175a2.015,2.015,0,0,1-3.247-1.6Z" transform="translate(-5409.678 -4433.785)"/><path class="a" d="M5418.535,4356.453a2.015,2.015,0,0,1,3.244-1.6l14.582,11.181a2.016,2.016,0,1,1-2.455,3.2l-14.577-11.171A2.025,2.025,0,0,1,5418.535,4356.453Z" transform="translate(-5409.678 -4354.439)"/></g><path class="a" d="M5663.469,4364.85l-4.106-2.353.125-3.019v-40.391l5.493.043a54.608,54.608,0,0,1,25.188,6.623l8.867-18.618a77.169,77.169,0,0,0-34.184-8.238l-5.365-.1v-16.247a3.114,3.114,0,1,0-6.228,0v16.871l-4.336.9c-23.537,4.893-39.367,21.559-39.367,41.451,0,21.166,19.864,34.2,39.289,44.173l3.971,2.17.444,3.438v45.992l-5.694.4c-.708.043-1.4.089-2.145.089-14.787,0-27.812-6.065-31.442-7.936l-8.052,18.624c8.517,5.7,24.178,9.3,39.073,9.3.561,0,1.091-.05,1.62-.05l6.64-.229v15.946a3.114,3.114,0,0,0,6.228,0v-16.64l4.318-.9c25.492-5.377,40.106-21.508,40.106-44.285C5703.913,4388.37,5682.294,4374.406,5663.469,4364.85Zm-19.773-13.706a18.085,18.085,0,0,1-4.486-12.858,17.229,17.229,0,0,1,4.585-11.538l4.787-3.831,4.728-2.214-.049,38.674-4.971-3.251Zm25.333,78.258-4.35,4.844-5.191,3.4V4389.8l5.922,5.467,3.9,5.978a23.468,23.468,0,0,1,4.539,14.771A19.965,19.965,0,0,1,5669.029,4429.4Z" transform="translate(-107.528 -71.109)"/><path class="b" d="M5658.574,4360.107l-4.106-2.354.123-3.021v-40.389l5.493.044a54.562,54.562,0,0,1,25.191,6.622l8.869-18.621a77.173,77.173,0,0,0-34.185-8.236l-5.368-.1v-16.248a3.113,3.113,0,1,0-6.225,0v16.869l-4.333.9c-23.543,4.892-39.373,21.555-39.373,41.45,0,21.166,19.867,34.205,39.289,44.172l3.976,2.171.44,3.437V4432.8l-5.69.395c-.713.043-1.4.089-2.15.089-14.786,0-27.81-6.068-31.442-7.937l-8.049,18.625c8.516,5.7,24.178,9.3,39.074,9.3.56,0,1.088-.045,1.619-.045l6.639-.232v15.949a3.113,3.113,0,0,0,6.225,0V4452.3l4.321-.9c25.493-5.375,40.106-21.506,40.106-44.283C5699.018,4383.627,5677.4,4369.66,5658.574,4360.107ZM5638.8,4346.4a18.072,18.072,0,0,1-4.489-12.859,17.209,17.209,0,0,1,4.587-11.534l4.785-3.832,4.73-2.217-.049,38.677-4.971-3.25Zm25.337,78.259-4.354,4.846-5.193,3.4v-47.843l5.925,5.467,3.895,5.975a23.455,23.455,0,0,1,4.541,14.771A19.975,19.975,0,0,1,5664.138,4424.657Z" transform="translate(-104.972 -68.631)"/><path class="a" d="M5533.373,4711.742c.3,52.345,37.635,94.675,83.665,94.675s83.359-42.33,83.658-94.675Z" transform="translate(-69.642 -296.852)"/><path class="c" d="M5533.373,4711.742c.273,48.958,34.469,88.551,76.625,88.551s76.346-39.594,76.624-88.551Z" transform="translate(-69.642 -296.852)"/><path class="c" d="M5699.611,4685.6a13.559,13.559,0,0,1-13.561,13.554H5522.285a13.553,13.553,0,0,1-13.555-13.554h0a13.554,13.554,0,0,1,13.555-13.558h163.766a13.56,13.56,0,0,1,13.561,13.558Z" transform="translate(-56.775 -276.12)"/><path class="c" d="M5705.239,4908.867a3.943,3.943,0,0,1-3.944,3.941H5639.66a3.94,3.94,0,0,1-3.938-3.941h0a3.94,3.94,0,0,1,3.938-3.943H5701.3a3.943,3.943,0,0,1,3.944,3.943Z" transform="translate(-123.085 -397.724)"/><g transform="translate(5585.251 4268.86)"><path class="d" d="M5837.727,4407.217s-46.762-10.511-49.739,34.04c11.985-12.894,36.249-23.018,36.249-23.018-18.3,11.077-29.969,21.576-36.065,27.782C5800.527,4460.81,5840.685,4441.335,5837.727,4407.217Z" transform="translate(-5787.843 -4406.137)"/><path class="e" d="M5824.078,4431.464s-24.263,10.125-36.248,23.018c-.086,1.4-.142,2.855-.144,4.37.109.137.217.264.327.395C5794.111,4453.04,5805.778,4442.541,5824.078,4431.464Z" transform="translate(-5787.687 -4419.362)"/></g><g transform="translate(5508.716 4203.917)"><path class="d" d="M5627.763,4270.448s-3.793,23.45,18.337,23.583c-6.738-5.54-12.478-17.237-12.478-17.237a91.709,91.709,0,0,0,14.832,17.006C5655.4,4287.241,5644.553,4267.958,5627.763,4270.448Z" transform="translate(-5627.516 -4270.228)"/><path class="e" d="M5640.295,4283.97s5.74,11.7,12.478,17.237c.7,0,1.419-.014,2.171-.058.063-.058.121-.113.183-.174A91.719,91.719,0,0,1,5640.295,4283.97Z" transform="translate(-5634.188 -4277.404)"/></g><g transform="translate(5445.022 4234.829)"><path class="d" d="M5494.271,4336.473s46.326-12.27,50.989,32.133c-12.464-12.433-37.092-21.628-37.092-21.628,18.706,10.377,30.766,20.426,37.089,26.4C5533.472,4388.619,5492.6,4370.677,5494.271,4336.473Z" transform="translate(-5494.221 -4334.918)"/><path class="e" d="M5523.408,4360.155s24.628,9.2,37.092,21.628c.142,1.4.252,2.847.31,4.361-.1.139-.2.272-.313.406C5554.174,4380.581,5542.114,4370.532,5523.408,4360.155Z" transform="translate(-5509.461 -4348.096)"/></g><g transform="translate(5596.383 4353.803)"><path class="d" d="M5853.338,4597.071s-17.814-24-40.183-7.2c11.886-.169,28.442,5.977,28.442,5.977a145.2,145.2,0,0,0-30.592-3.972C5810.077,4603.083,5838.759,4612.149,5853.338,4597.071Z" transform="translate(-5810.983 -4583.903)"/><path class="e" d="M5841.621,4602.36s-16.556-6.146-28.442-5.977c-.7.525-1.413,1.094-2.122,1.706-.014.1-.023.2-.029.3A145.267,145.267,0,0,1,5841.621,4602.36Z" transform="translate(-5811.007 -4590.418)"/></g><g transform="translate(5467.06 4280.681)"><path class="d" d="M5540.34,4448.632s22.15,7.333,31.288-12.583c-8.34,5.145-22.5,8.36-22.5,8.36a134.645,134.645,0,0,0,23.221-10.52C5568.546,4426.537,5544.651,4433.089,5540.34,4448.632Z" transform="translate(-5540.34 -4430.876)"/><path class="e" d="M5558.734,4447.7s14.158-3.215,22.5-8.36c.287-.625.563-1.28.824-1.958-.031-.07-.067-.137-.1-.2A134.616,134.616,0,0,1,5558.734,4447.7Z" transform="translate(-5549.945 -4434.171)"/></g><path class="a" d="M5700.27,4733.227h-165.7l-.465-4.536,166.636-.078Z" transform="translate(-70.023 -305.662)"/></g></svg>