<svg xmlns="http://www.w3.org/2000/svg" width="231.868" height="69.641" viewBox="0 0 231.868 69.641"><defs><style>.a,.d{fill:#fff;}.a{font-size:48px;font-family:FredokaOne-Regular, Fredoka One;}.b{fill:#008f71;}.c{fill:#139b7e;}.e{fill:#609;}</style></defs><text class="a" transform="translate(63.868 57.855)"><tspan x="0" y="0">Cooper</tspan></text><g transform="translate(0)"><rect class="b" width="2.892" height="10.986" transform="translate(26.206 31.182)"/><g transform="translate(22.827)"><path class="c" d="M732.367,2916,711.8,2936.566l-.03.03-3.222,3.222-.007,0-5.677,5.679-.008.009L698.369,2950l0,0-2.544,2.544a15.576,15.576,0,0,1-4.391-8.451,17.821,17.821,0,0,1,1.7-10.854,15.488,15.488,0,0,1,6.121,10.854v-18.374a27.771,27.771,0,0,1,8.1-4.453C716.038,2918.179,722.28,2919.394,732.367,2916Z" transform="translate(-691.198 -2916)"/><path class="c" d="M761.224,2941.011c-5.766,16.194-22.249,20.566-31.277,11.538L766.493,2916C763.1,2926.092,764.314,2932.333,761.224,2941.011Z" transform="translate(-725.323 -2916.003)"/><path class="d" d="M841.053,2992.75s1.972,8.208-1.256,11.435l-3.227,3.228S841.161,2998.173,841.053,2992.75Z" transform="translate(-819.221 -2983.591)"/><path class="d" d="M757.511,3029.892s2.744,11.425-1.748,15.917l-4.493,4.493S757.661,3037.44,757.511,3029.892Z" transform="translate(-744.101 -3016.301)"/><path class="d" d="M851.232,3073.649s-8.207-1.972-11.435,1.256l-3.227,3.228S845.81,3073.542,851.232,3073.649Z" transform="translate(-819.221 -3054.311)"/><path class="d" d="M771.68,3142.5s-11.425-2.745-15.917,1.747l-4.493,4.493S764.132,3142.351,771.68,3142.5Z" transform="translate(-744.101 -3114.741)"/><path class="b" d="M713.559,2997.464v18.374a15.489,15.489,0,0,0-6.121-10.854A22.3,22.3,0,0,1,713.559,2997.464Z" transform="translate(-705.5 -2987.743)"/></g><g transform="translate(0 10.021)"><path class="c" d="M518.7,3003.933c-6.516-2.321-11.2-1.407-18.782-3.958h0c2.549,7.577,1.637,12.265,3.957,18.783,4.331,12.164,16.712,15.448,23.493,8.667h0C534.153,3020.639,530.853,3008.247,518.7,3003.933Z" transform="translate(-499.915 -2999.975)"/><path class="d" d="M618.326,3057.629s-1.481,6.165.943,8.59l2.425,2.424S618.245,3061.7,618.326,3057.629Z" transform="translate(-603.801 -3050.749)"/><path class="d" d="M670.041,3085.525s-2.062,8.581,1.313,11.956l3.374,3.375S669.928,3091.195,670.041,3085.525Z" transform="translate(-649.19 -3075.316)"/><path class="d" d="M557.56,3118.394s6.165-1.481,8.589.943l2.425,2.424S561.633,3118.313,557.56,3118.394Z" transform="translate(-550.681 -3103.867)"/><path class="d" d="M585.456,3170.109s8.581-2.062,11.956,1.313l3.375,3.375S591.126,3170,585.456,3170.109Z" transform="translate(-575.248 -3149.256)"/></g><g transform="translate(13.443 42.37)"><path class="d" d="M616.008,3305.059a13.245,13.245,0,1,1-13.244-13.246A13.244,13.244,0,0,1,616.008,3305.059Z" transform="translate(-588.736 -3291.031)"/><path class="e" d="M681.735,3346.931a6,6,0,0,0-3.019-1.3l-1.4-.283a3.676,3.676,0,0,1-1.38-.49.946.946,0,0,1-.38-.8,1.083,1.083,0,0,1,.565-1.008,3.614,3.614,0,0,1,1.74-.324,8.114,8.114,0,0,1,1.887.239,11.727,11.727,0,0,1,2.049.709v-2.7a19.756,19.756,0,0,0-2.3-.476c-.224-.03-.442-.049-.661-.07v-1.487h-2.465v1.454a4.719,4.719,0,0,0-2.568.971,3.593,3.593,0,0,0-1.228,2.927,3.291,3.291,0,0,0,.883,2.416,5.476,5.476,0,0,0,2.8,1.306l1.271.282a3.971,3.971,0,0,1,1.551.58,1.239,1.239,0,0,1-.185,1.945,3.1,3.1,0,0,1-1.646.36,7.862,7.862,0,0,1-2.2-.33,12.22,12.22,0,0,1-2.361-.977v2.774a15.051,15.051,0,0,0,2.443.682,12.257,12.257,0,0,0,1.243.173v1.46h2.465V3353.5a4.868,4.868,0,0,0,2.543-.953,3.824,3.824,0,0,0,1.25-3.135A3.292,3.292,0,0,0,681.735,3346.931Z" transform="translate(-663.579 -3332.935)"/></g></g></svg>